<svg width="64" height="64" viewBox="0 0 64 64" fill="none" xmlns="http://www.w3.org/2000/svg">
  <defs>
    <linearGradient id="g" x1="0" y1="0" x2="64" y2="64" gradientUnits="userSpaceOnUse">
      <stop offset="0%" stop-color="#3B82F6"/>
      <stop offset="100%" stop-color="#E74C3C"/>
    </linearGradient>
  </defs>
  <path d="M32 4L56 18V46L32 60L8 46V18L32 4Z" stroke="url(#g)" stroke-width="2.5" stroke-linejoin="round" fill="none"/>
  <circle cx="32" cy="32" r="5" fill="url(#g)"/>
  <circle cx="20" cy="22" r="3" fill="url(#g)" opacity="0.85"/>
  <circle cx="44" cy="22" r="3" fill="url(#g)" opacity="0.85"/>
  <circle cx="20" cy="42" r="3" fill="url(#g)" opacity="0.85"/>
  <circle cx="44" cy="42" r="3" fill="url(#g)" opacity="0.85"/>
  <line x1="32" y1="32" x2="20" y2="22" stroke="url(#g)" stroke-width="1.5" opacity="0.5"/>
  <line x1="32" y1="32" x2="44" y2="22" stroke="url(#g)" stroke-width="1.5" opacity="0.5"/>
  <line x1="32" y1="32" x2="20" y2="42" stroke="url(#g)" stroke-width="1.5" opacity="0.5"/>
  <line x1="32" y1="32" x2="44" y2="42" stroke="url(#g)" stroke-width="1.5" opacity="0.5"/>
  <line x1="20" y1="22" x2="44" y2="22" stroke="url(#g)" stroke-width="1" opacity="0.3"/>
  <line x1="44" y1="22" x2="44" y2="42" stroke="url(#g)" stroke-width="1" opacity="0.3"/>
  <line x1="44" y1="42" x2="20" y2="42" stroke="url(#g)" stroke-width="1" opacity="0.3"/>
  <line x1="20" y1="42" x2="20" y2="22" stroke="url(#g)" stroke-width="1" opacity="0.3"/>
</svg>
